# xmcd CD Database Entry
#
# Track frame offsets:
# 150
# 32543
# 52332
# 64034
# 73250
# 91265
# 113026
# 133175
# 155795
# 169957
# 191289
#
# Disc length: 3006 seconds
#
# Revision: 1
# Processed by: cddbd v1.5PL3 Copyright (c) Steve Scherf et al.
# Submitted via: tcd 2.0b
#
DISCID=9f0bbc0b
DTITLE=Majbrtte Ulrikkeholm - The door to silence
DYEAR=1900
DGENRE=
TTITLE0=OM Shanti
TTITLE1=What are you praying for
TTITLE2=The door to silence
TTITLE3=Qarrtsiluni
TTITLE4=Invitation
TTITLE5=The hermit
TTITLE6=Your children
TTITLE7=Escape from freedom
TTITLE8=Mirrorcle
TTITLE9=Completition
TTITLE10=Eternerty in my hand
EXTD=2004\nwww.fonixmusic.com
EXTT0=
EXTT1=
EXTT2=
EXTT3=
EXTT4=
EXTT5=
EXTT6=
EXTT7=
EXTT8=
EXTT9=
EXTT10=
PLAYORDER=
